#circle1
<svg width="18" height="16" viewBox="0 0 18 16" fill="none" xmlns="http://www.w3.org/2000/svg">
<path fill-rule="evenodd" clip-rule="evenodd" d="M0 1C0 0.447715 0.447715 0 1 0H17C17.5523 0 18 0.447715 18 1C18 1.55228 17.5523 2 17 2H1C0.447716 2 0 1.55228 0 1ZM0 8C0 7.44772 0.447715 7 1 7H9C9.55228 7 10 7.44772 10 8C10 8.55229 9.55229 9 9 9H1C0.447715 9 0 8.55229 0 8ZM1 14C0.447715 14 0 14.4477 0 15C0 15.5523 0.447716 16 1 16H13C13.5523 16 14 15.5523 14 15C14 14.4477 13.5523 14 13 14H1Z" fill="white"/>
</svg>

#burger
<svg width="18" height="16" viewBox="0 0 18 16" fill="none" xmlns="http://www.w3.org/2000/svg">
<path fill-rule="evenodd" clip-rule="evenodd" d="M0 1C0 0.447715 0.447715 0 1 0H17C17.5523 0 18 0.447715 18 1C18 1.55228 17.5523 2 17 2H1C0.447716 2 0 1.55228 0 1ZM0 8C0 7.44772 0.447715 7 1 7H9C9.55228 7 10 7.44772 10 8C10 8.55229 9.55229 9 9 9H1C0.447715 9 0 8.55229 0 8ZM1 14C0.447715 14 0 14.4477 0 15C0 15.5523 0.447716 16 1 16H13C13.5523 16 14 15.5523 14 15C14 14.4477 13.5523 14 13 14H1Z" fill="white"/>
</svg>

#call
<svg width="18" height="18" viewBox="0 0 18 18" fill="none" xmlns="http://www.w3.org/2000/svg">
<path fill-rule="evenodd" clip-rule="evenodd" d="M1.76019 12.25L4.30019 11.96C4.91019 11.89 5.51019 12.1 5.94019 12.53L7.78019 14.37C10.6102 12.93 12.9302 10.62 14.3702 7.78L12.5202 5.93C12.0902 5.5 11.8802 4.9 11.9502 4.29L12.2402 1.77C12.3602 0.76 13.2102 0 14.2302 0H15.9602C17.0902 0 18.0302 0.94 17.9602 2.07C17.4302 10.61 10.6002 17.43 2.07019 17.96C0.940193 18.03 0.00019455 17.09 0.00019455 15.96V14.23C-0.00980568 13.22 0.750193 12.37 1.76019 12.25Z" fill="white"/>
</svg>

#chat
<svg width="18" height="18" viewBox="0 0 18 18" fill="none" xmlns="http://www.w3.org/2000/svg">
<path fill-rule="evenodd" clip-rule="evenodd" d="M1.76019 12.25L4.30019 11.96C4.91019 11.89 5.51019 12.1 5.94019 12.53L7.78019 14.37C10.6102 12.93 12.9302 10.62 14.3702 7.78L12.5202 5.93C12.0902 5.5 11.8802 4.9 11.9502 4.29L12.2402 1.77C12.3602 0.76 13.2102 0 14.2302 0H15.9602C17.0902 0 18.0302 0.94 17.9602 2.07C17.4302 10.61 10.6002 17.43 2.07019 17.96C0.940193 18.03 0.00019455 17.09 0.00019455 15.96V14.23C-0.00980568 13.22 0.750193 12.37 1.76019 12.25Z" fill="white"/>
</svg>

#profile
<svg width="20" height="18" viewBox="0 0 20 18" fill="none" xmlns="http://www.w3.org/2000/svg">
<path d="M10.5 9C12.9853 9 15 6.98528 15 4.5C15 2.01472 12.9853 0 10.5 0C8.01472 0 6 2.01472 6 4.5C6 6.98528 8.01472 9 10.5 9Z" fill="white"/>
<path d="M0.0165859 16.6118C-0.113065 17.3412 0.535191 18 1.33903 18H18.6604C19.4902 18 20.1125 17.3412 19.9829 16.6118C19.2309 12.4 15.0561 10 9.99973 10C4.94333 10 0.768563 12.4 0.0165859 16.6118Z" fill="white"/>
</svg>

#repair
<svg width="19" height="20" viewBox="0 0 19 20" fill="none" xmlns="http://www.w3.org/2000/svg">
<path d="M17.8527 13.0448C16.8636 12.0036 15.4393 11.6288 14.0941 12.0036L7.64527 5.17331C7.72439 4.79848 7.76396 4.46529 7.76396 4.09046C7.76396 3.04926 7.36832 2.00806 6.61661 1.21675C5.58796 0.0922529 4.04498 -0.282579 2.6207 0.217197C2.54157 0.258845 2.42288 0.383789 2.38331 0.550381C2.38331 0.675325 2.42288 0.800269 2.50201 0.925213L4.44062 2.96597C4.87582 3.42409 4.87582 4.21541 4.44062 4.67353C4.00542 5.13166 3.25371 5.13166 2.81851 4.67353L0.8799 2.63278C0.76121 2.54949 0.642519 2.50784 0.484265 2.54949C0.365574 2.54949 0.246884 2.67443 0.20732 2.79937C-0.267442 4.25705 0.0886295 5.88133 1.11728 6.96417C1.82943 7.75549 2.85808 8.17197 3.88673 8.17197C4.20324 8.17197 4.55931 8.13032 4.87582 8.04702L11.3642 14.8773C11.0082 16.2933 11.4038 17.7927 12.3533 18.8339C13.105 19.6252 14.0546 20 15.0832 20C15.5184 20 15.914 19.9167 16.3492 19.7918C16.4679 19.7501 16.5866 19.6252 16.6262 19.5002C16.6658 19.3753 16.6262 19.2087 16.5075 19.1254L14.5689 17.0846C14.3711 16.8764 14.2128 16.5432 14.2128 16.21C14.2128 15.8768 14.3315 15.5853 14.5689 15.3354C14.8063 15.0855 15.0832 14.9606 15.3997 14.9606C15.7162 14.9606 15.9932 15.0855 16.2306 15.3354L18.1692 17.3762C18.2879 17.4595 18.4065 17.5011 18.5252 17.5011C18.6439 17.4595 18.7626 17.3762 18.8022 17.2512C18.9209 16.8348 19 16.3766 19 15.9185C19 14.8356 18.6044 13.7944 17.8527 13.0448Z" fill="white"/>
</svg>

#checkstatus
<svg width="16" height="20" viewBox="0 0 16 20" fill="none" xmlns="http://www.w3.org/2000/svg">
<path fill-rule="evenodd" clip-rule="evenodd" d="M0 1C0 0.447715 0.447715 0 1 0H15C15.5523 0 16 0.447716 16 1V18.5C15.1716 18.5 14.5001 19.1715 14.5 19.9999H13.5C13.4999 19.1715 12.8284 18.5 12 18.5C11.1716 18.5 10.5001 19.1715 10.5 19.9999H9.5C9.49994 19.1715 8.82839 18.5 8 18.5C7.17161 18.5 6.50006 19.1715 6.5 19.9999H5.5C5.49994 19.1715 4.82839 18.5 4 18.5C3.17161 18.5 2.50006 19.1715 2.5 19.9999H1.5C1.49994 19.1715 0.828392 18.5 0 18.5V1ZM9.41635 11.7884C8.55361 12.3444 7.47039 12.5936 6.32965 12.3827C4.52748 12.0472 3.08957 10.5327 2.85951 8.71142C2.49524 5.82612 4.94926 3.42012 7.85383 3.88023C9.656 4.1678 11.1035 5.644 11.4007 7.43652C11.5828 8.54846 11.324 9.57413 10.7872 10.4273L12.8961 12.5265C13.2699 12.9004 13.2699 13.5138 12.8961 13.8877C12.5126 14.2711 11.8991 14.2711 11.5253 13.8973L9.41635 11.7884ZM4.70588 8.05882C4.70588 6.76 5.76 5.70588 7.05882 5.70588C8.35765 5.70588 9.41177 6.76 9.41177 8.05882C9.41177 9.35765 8.35765 10.4118 7.05882 10.4118C5.76 10.4118 4.70588 9.35765 4.70588 8.05882Z" fill="white"/>
</svg>

